/* XPM */
static char *wall[] = {
"64 64 2 1",
"0 c #e83a3aff",
"1 c #d96c6cff",
"0000000000000000000000000000000000000000000000000000000000000000",
"0111111111111111111111111111111111111111111111111111111111111110",
"0111111111111111111111111111111111111111111111111111111111111110",
"0110000000000000000000000000000000000000000000000000000000000110",
"0110000000000000000000000000000000000000000000000000000000000110",
"0110000000000000000000000000000000000000000000000000000000000110",
"0111111111111111111111111111111111111111111111111111111111111110",
"0111111111111111111111111111111111111111111111111111111111111110",
"0000000000000000000000000000000000000000000000000000000000000000",
"0000000000000000000000000000000000000000000000000000000000000000",
"0111111111111111111111111111111111111111111111111111111111111110",
"0111111111111111111111111111111111111111111111111111111111111110",
"0110000000000000000000000000000000000000000000000000000000000110",
"0110000000000000000000000000000000000000000000000000000000000110",
"0110000000000000000000000000000000000000000000000000000000000110",
"0111111111111111111111111111111111111111111111111111111111111110",
"0111111111111111111111111111111111111111111111111111111111111110",
"0000000000000000000000000000000000000000000000000000000000000000",
"0000000000000000000000000000000000000000000000000000000000000000",
"0111111111111111111111111111111111111111111111111111111111111110",
"0111111111111111111111111111111111111111111111111111111111111110",
"0110000000000000000000000000000000000000000000000000000000000110",
"0110000000000000000000000000000000000000000000000000000000000110",
"0110000000000000000000000000000000000000000000000000000000000110",
"0111111111111111111111111111111111111111111111111111111111111110",
"0111111111111111111111111111111111111111111111111111111111111110",
"0000000000000000000000000000000000000000000000000000000000000000",
"0000000000000000000000000000000000000000000000000000000000000000",
"0111111111111111111111111111111111111111111111111111111111111110",
"0111111111111111111111111111111111111111111111111111111111111110",
"0000000000000000000000000000000000000000000000000000000000000000",
"0000000000000000000000000000000000000000000000000000000000000000",
"0111111111111111111111111111111111111111111111111111111111111110",
"0111111111111111111111111111111111111111111111111111111111111110",
"0000000000000000000000000000000000000000000000000000000000000000",
"0000000000000000000000000000000000000000000000000000000000000000",
"0111111111111111111111111111111111111111111111111111111111111110",
"0111111111111111111111111111111111111111111111111111111111111110",
"0000000000000000000000000000000000000000000000000000000000000000",
"0000000000000000000000000000000000000000000000000000000000000000",
"0111111111111111111111111111111111111111111111111111111111111110",
"0111111111111111111111111111111111111111111111111111111111111110",
"0000000000000000000000000000000000000000000000000000000000000000",
"0000000000000000000000000000000000000000000000000000000000000000",
"0111111111111111111111111111111111111111111111111111111111111110",
"0111111111111111111111111111111111111111111111111111111111111110",
"0000000000000000000000000000000000000000000000000000000000000000",
"0000000000000000000000000000000000000000000000000000000000000000",
"0111111111111111111111111111111111111111111111111111111111111110",
"0111111111111111111111111111111111111111111111111111111111111110",
"0000000000000000000000000000000000000000000000000000000000000000",
"0000000000000000000000000000000000000000000000000000000000000000",
"0111111111111111111111111111111111111111111111111111111111111110",
"0111111111111111111111111111111111111111111111111111111111111110",
"0000000000000000000000000000000000000000000000000000000000000000",
"0000000000000000000000000000000000000000000000000000000000000000",
"0111111111111111111111111111111111111111111111111111111111111110",
"0111111111111111111111111111111111111111111111111111111111111110",
"0000000000000000000000000000000000000000000000000000000000000000",
"0000000000000000000000000000000000000000000000000000000000000000",
"0111111111111111111111111111111111111111111111111111111111111110",
"0111111111111111111111111111111111111111111111111111111111111110",
"0000000000000000000000000000000000000000000000000000000000000000",
"0000000000000000000000000000000000000000000000000000000000000000"
};
