/* XPM */
static char *player[] = {
"64 64 2 1",
"0 c none",
"1 c #0000ff",
"0000000000000000000000000000000000000000000000000000000000000000",
"0000000000111111111100000000000000000000000000000000000000000000",
"0000000001111111111110000000000000000000000000000000000000000000",
"0000000011111111111111000000000000000000000000000000000000000000",
"0000000011111111111111000000000000000000000000000000000000000000",
"0000000111111111111111100000000000000000000000000000000000000000",
"0000000111111111111111100000000000000000000000000000000000000000",
"0000001111111111111111110000000000000000000000000000000000000000",
"0000001111111111111111110000000000000000000000000000000000000000",
"0000011111111111111111111000000000000000000000000000000000000000",
"0000011111111111111111111000000000000000000000000000000000000000",
"0000111111111111111111111100000000000000000000000000000000000000",
"0000111111111111111111111100000000000000000000000000000000000000",
"0000111111111111111111111100000000000000000000000000000000000000",
"0000011111111111111111111000000000000000000000000000000000000000",
"0000001111111111111111110000000000000000000000000000000000000000",
"0000000111111111111111100000000000000000000000000000000000000000",
"0000000011111111111111000000000000000000000000000000000000000000",
"0000000001111111111110000000000000000000000000000000000000000000",
"0000000000111111111100000000000000000000000000000000000000000000",
"0000000000000000000000000000000000000000000000000000000000000000",
"0000000000000000000000000000000000000000000000000000000000000000",
"0000000000000000000000000000000000000000000000000000000000000000",
"0000000000000000000000000000000000000000000000000000000000000000",
"0000000000000000000000000000000000000000000000000000000000000000",
"0000000000000000000000000000000000000000000000000000000000000000",
"0000000000000000000000000000000000000000000000000000000000000000",
"0000000000000000000000000000000000000000000000000000000000000000",
"0000000000000000000000000000000000000000000000000000000000000000",
"0000000000000000000000000000000000000000000000000000000000000000",
"0000000000000000000000000000000000000000000000000000000000000000",
"0000000000000000000000000000000000000000000000000000000000000000",
"0000000000000000000000000000000000000000000000000000000000000000",
"0000000000000000000000000000000000000000000000000000000000000000",
"0000000000000000000000000000000000000000000000000000000000000000",
"0000000000000000000000000000000000000000000000000000000000000000",
"0000000000000000000000000000000000000000000000000000000000000000",
"0000000000000000000000000000000000000000000000000000000000000000",
"0000000000000000000000000000000000000000000000000000000000000000",
"0000000000000000000000000000000000000000000000000000000000000000",
"0000000000000000000000000000000000000000000000000000000000000000",
"0000000000000000000000000000000000000000000000000000000000000000",
"0000000000000000000000000000000000000000000000000000000000000000",
"0000000000000000000000000000000000000000000000000000000000000000",
"0000000000000000000000000000000000000000000000000000000000000000",
"0000000000000000000000000000000000000000000000000000000000000000",
"0000000000000000000000000000000000000000000000000000000000000000",
"0000000000000000000000000000000000000000000000000000000000000000",
"0000000000000000000000000000000000000000000000000000000000000000",
"0000000000000000000000000000000000000000000000000000000000000000",
"0000000000000000000000000000000000000000000000000000000000000000",
"0000000000000000000000000000000000000000000000000000000000000000",
"0000000000000000000000000000000000000000000000000000000000000000",
"0000000000000000000000000000000000000000000000000000000000000000",
"0000000000000000000000000000000000000000000000000000000000000000",
"0000000000000000000000000000000000000000000000000000000000000000",
"0000000000000000000000000000000000000000000000000000000000000000",
"0000000000000000000000000000000000000000000000000000000000000000",
"0000000000000000000000000000000000000000000000000000000000000000",
"0000000000000000000000000000000000000000000000000000000000000000",
"0000000000000000000000000000000000000000000000000000000000000000",
"0000000000000000000000000000000000000000000000000000000000000000",
"0000000000000000000000000000000000000000000000000000000000000000",
"0000000000000000000000000000000000000000000000000000000000000000",
};
