/* XPM */
static char *wall[] = {
"64 64 2 1",
"0 c #555555",
"1 c #333333",
"0000000000000000000000000000000000000000000000000000000000000000",
"0111111111111111111111111111111111111111111111111111111111111110",
"0111111111111111111111111111111111111111111111111111111111111110",
"0110000000000000000000000000000000000000000000000000000000000110",
"0110000000000000000000000000000000000000000000000000000000000110",
"0110000000000000000000000000000000000000000000000000000000000110",
"0111111111111111111111111111111111111111111111111111111111111110",
"0111111111111111111111111111111111111111111111111111111111111110",
"0000000000000000000000000000000000000000000000000000000000000000",
"0000000000000000000000000000000000000000000000000000000000000000",
"0111111111111111111111111111111111111111111111111111111111111110",
"0111111111111111111111111111111111111111111111111111111111111110",
"0110000000000000000000000000000000000000000000000000000000000110",
"0110000000000000000000000000000000000000000000000000000000000110",
"0110000000000000000000000000000000000000000000000000000000000110",
"0111111111111111111111111111111111111111111111111111111111111110",
"0111111111111111111111111111111111111111111111111111111111111110",
"0000000000000000000000000000000000000000000000000000000000000000",
"0000000000000000000000000000000000000000000000000000000000000000",
"0111111111111111111111111111111111111111111111111111111111111110",
"0111111111111111111111111111111111111111111111111111111111111110",
"0110000000000000000000000000000000000000000000000000000000000110",
"0110000000000000000000000000000000000000000000000000000000000110",
"0110000000000000000000000000000000000000000000000000000000000110",
"0111111111111111111111111111111111111111111111111111111111111110",
"0111111111111111111111111111111111111111111111111111111111111110",
"0000000000000000000000000000000000000000000000000000000000000000",
"0000000000000000000000000000000000000000000000000000000000000000",
"0111111111111111111111111111111111111111111111111111111111111110",
"0111111111111111111111111111111111111111111111111111111111111110",
"0000000000000000000000000000000000000000000000000000000000000000",
"0000000000000000000000000000000000000000000000000000000000000000",
"0111111111111111111111111111111111111111111111111111111111111110",
"0111111111111111111111111111111111111111111111111111111111111110",
"0000000000000000000000000000000000000000000000000000000000000000",
"0000000000000000000000000000000000000000000000000000000000000000",
"0111111111111111111111111111111111111111111111111111111111111110",
"0111111111111111111111111111111111111111111111111111111111111110",
"0000000000000000000000000000000000000000000000000000000000000000",
"0000000000000000000000000000000000000000000000000000000000000000",
"0111111111111111111111111111111111111111111111111111111111111110",
"0111111111111111111111111111111111111111111111111111111111111110",
"0000000000000000000000000000000000000000000000000000000000000000",
"0000000000000000000000000000000000000000000000000000000000000000",
"0111111111111111111111111111111111111111111111111111111111111110",
"0111111111111111111111111111111111111111111111111111111111111110",
"0000000000000000000000000000000000000000000000000000000000000000",
"0000000000000000000000000000000000000000000000000000000000000000",
"0111111111111111111111111111111111111111111111111111111111111110",
"0111111111111111111111111111111111111111111111111111111111111110",
"0000000000000000000000000000000000000000000000000000000000000000",
"0000000000000000000000000000000000000000000000000000000000000000",
"0111111111111111111111111111111111111111111111111111111111111110",
"0111111111111111111111111111111111111111111111111111111111111110",
"0000000000000000000000000000000000000000000000000000000000000000",
"0000000000000000000000000000000000000000000000000000000000000000",
"0111111111111111111111111111111111111111111111111111111111111110",
"0111111111111111111111111111111111111111111111111111111111111110",
"0000000000000000000000000000000000000000000000000000000000000000",
"0000000000000000000000000000000000000000000000000000000000000000",
"0111111111111111111111111111111111111111111111111111111111111110",
"0111111111111111111111111111111111111111111111111111111111111110",
"0000000000000000000000000000000000000000000000000000000000000000",
"0000000000000000000000000000000000000000000000000000000000000000"
};
